<svg id="Capa_1" enable-background="new 0 0 511.222 511.222" height="512" viewBox="0 0 511.222 511.222" width="512" xmlns="http://www.w3.org/2000/svg"><g><path d="m483.549 173.078c-1.253.62-2.411 1.417-3.449 2.353-8.812 7.947-58.622 51.002-103.548 51.002l-241.06.021c-48.624-1.024-94.636-45.437-107.989-54.671-15.654-7.145-31.503 12.072-26.594 33.706 17.565 77.42 72.591 204.502 253.702 204.502 185.051 0 238.97-126.769 255.033-203.58 6.025-28.809-5.747-43.407-26.095-33.333z" fill="#bd6c56"/><path d="m483.549 173.078c-1.253.62-2.411 1.417-3.449 2.353-8.812 7.947-58.622 51.002-103.548 51.002l-118.93.01v183.516c182.609-1.378 236.048-127.158 252.022-203.548 6.025-28.809-5.747-43.407-26.095-33.333z" fill="#854837"/><path d="m377.958 236.968-9.722-82.369c-2.146-28.905-25.929-51.97-54.883-53.305-12.378-.571-23.944 2.757-33.581 8.858-13.536 8.57-30.604 8.57-44.141 0-9.637-6.101-21.203-9.429-33.581-8.858-28.954 1.335-52.737 24.4-54.883 53.304l-13.192 82.34c15.051 8.6 53.213 55.995 121.729 55.995 68.439.001 106.972-47.356 122.254-55.965z" fill="#db986e"/><path d="m313.353 101.294c-12.378-.571-23.944 2.757-33.581 8.858-6.792 4.3-14.472 6.44-22.15 6.425v176.337c67.239-.875 105.198-47.417 120.336-55.945l-9.722-82.369c-2.146-28.906-25.93-51.971-54.883-53.306z" fill="#bd6c56"/><path d="m255.704 262.336c-68.516 0-106.678-16.796-121.729-25.397l-7.41 46.25c-1.067 6.66 1.892 13.311 7.541 16.996 16.619 10.843 56.173 30.871 121.62 30.871 66.046 0 104.692-20.397 120.495-31.167 5.23-3.564 8.011-9.765 7.27-16.05l-5.532-46.872c-15.283 8.61-53.816 25.369-122.255 25.369z" fill="#fd0"/><path d="m377.958 236.986c-15.137 8.528-53.106 25.041-120.336 25.353v68.718c64.88-.389 102.95-20.483 118.599-31.148 5.23-3.564 8.011-9.765 7.27-16.05z" fill="#ffc125"/></g></svg>